<svg width="632.5949462890625px" height="122px" xmlns="http://www.w3.org/2000/svg" viewBox="-66.29747314453124 40 632.5949462890625 122" preserveAspectRatio="xMidYMid"><defs><linearGradient id="editing-glowing-gradient" x1="0.8146601955249185" x2="0.18533980447508147" y1="0.8885729807284856" y2="0.11142701927151444"><stop offset="0" stop-color="#67ff43"></stop><stop offset="1" stop-color="#90ffff"></stop></linearGradient><filter id="editing-glowing" x="-100%" y="-100%" width="300%" height="300%"><feGaussianBlur in="SourceGraphic" result="blur" stdDeviation="10"></feGaussianBlur><feMerge><feMergeNode in="blur"></feMergeNode><feMergeNode in="SourceGraphic"></feMergeNode></feMerge></filter></defs><g filter="url(#editing-glowing)"><g transform="translate(25.77938663959503, 97.18000030517578)"><path d="M6.53 0L-0.83 0L10.75-42.24L24.13-42.24L27.07-18.11L38.98-42.24L50.18-42.24L51.33-10.62L51.33-10.62Q51.58-4.35 54.66-2.43L54.66-2.43L54.66-2.43Q53.95-1.15 51.90 0.06L51.90 0.06L51.90 0.06Q49.86 1.28 47.14 1.28L47.14 1.28L47.14 1.28Q44.42 1.28 42.82 0.51L42.82 0.51L42.82 0.51Q41.22-0.26 40.32-1.54L40.32-1.54L40.32-1.54Q38.72-3.84 38.72-8.26L38.72-8.26L38.72-28.03L26.11 0L18.18 0L13.70-28.74L6.53 0ZM58.37-15.62L58.37-15.62L58.37-15.62Q58.37-27.71 64.64-35.33L64.64-35.33L64.64-35.33Q71.30-43.58 82.88-43.58L82.88-43.58L82.88-43.58Q91.26-43.58 95.49-39.52L95.49-39.52L95.49-39.52Q99.71-35.46 99.71-26.88L99.71-26.88L99.71-26.88Q99.71-13.82 93.06-6.21L93.06-6.21L93.06-6.21Q86.46 1.28 75.39 1.28L75.39 1.28L75.39 1.28Q66.75 1.28 62.56-3.04L62.56-3.04L62.56-3.04Q58.37-7.36 58.37-15.62ZM75.20-28.86L75.20-28.86L75.20-28.86Q72.32-17.34 72.32-8.26L72.32-8.26L72.32-8.26Q72.32-6.08 73.06-4.67L73.06-4.67L73.06-4.67Q73.79-3.26 75.74-3.26L75.74-3.26L75.74-3.26Q77.70-3.26 78.91-4.19L78.91-4.19L78.91-4.19Q80.13-5.12 81.09-7.23L81.09-7.23L81.09-7.23Q82.62-10.69 84.06-18.02L84.06-18.02L84.06-18.02Q85.50-25.34 85.63-28.38L85.63-28.38L85.63-28.38Q85.76-31.42 85.76-33.73L85.76-33.73L85.76-33.73Q85.76-36.03 85.06-37.50L85.06-37.50L85.06-37.50Q84.35-38.98 82.46-38.98L82.46-38.98L82.46-38.98Q80.58-38.98 79.30-37.82L79.30-37.82L79.30-37.82Q76.93-35.65 75.20-28.86ZM104.45-39.68L104.45-39.68L104.45-39.68Q106.30-43.52 111.46-43.52L111.46-43.52L111.46-43.52Q116.61-43.52 119.01-40.54L119.01-40.54L119.01-40.54Q121.41-37.57 121.41-30.72L121.41-30.72L121.41-7.87L136.96-42.18L144.58-42.18L124.67 0L109.70 0L107.78-30.72L107.78-30.72Q107.58-34.11 106.66-36.42L106.66-36.42L106.66-36.42Q105.73-38.72 104.45-39.68ZM155.26 0L141.31 0L149.44-42.24L163.52-42.24L155.26 0ZM192.26-9.86L192.26-9.86L192.26-9.86Q193.47-8.32 193.47-5.82L193.47-5.82L193.47-5.82Q193.47-2.37 190.91-0.54L190.91-0.54L190.91-0.54Q188.35 1.28 184.32 1.28L184.32 1.28L184.32 1.28Q182.02 1.28 178.50 0.77L178.50 0.77L178.50 0.77Q171.58-0.32 169.47-0.32L169.47-0.32L169.47-0.32Q167.36-0.32 166.53-0.22L166.53-0.22L166.53-0.22Q165.70-0.13 164.35 0L164.35 0L172.22-42.24L199.81-42.24L199.81-42.24Q199.81-38.34 197.92-36.29L197.92-36.29L197.92-36.29Q196.03-34.24 192.32-34.24L192.32-34.24L192.32-34.24Q188.61-34.24 184.83-35.97L184.83-35.97L182.85-24.77L194.24-24.77L194.24-24.77Q194.24-21.38 192.58-19.49L192.58-19.49L192.58-19.49Q190.91-17.60 188.13-17.60L188.13-17.60L188.13-17.60Q185.34-17.60 183.62-18.24L183.62-18.24L183.62-18.24Q181.89-18.88 181.70-19.07L181.70-19.07L179.39-6.98L179.39-6.98Q180.93-6.78 183.81-6.78L183.81-6.78L183.81-6.78Q188.74-6.78 192.26-9.86ZM214.14-39.68L214.14-39.68L214.14-39.68Q216-43.52 221.15-43.52L221.15-43.52L221.15-43.52Q226.30-43.52 228.70-40.54L228.70-40.54L228.70-40.54Q231.10-37.57 231.10-30.72L231.10-30.72L231.10-7.87L246.66-42.18L254.27-42.18L234.37 0L219.39 0L217.47-30.72L217.47-30.72Q217.28-34.11 216.35-36.42L216.35-36.42L216.35-36.42Q215.42-38.72 214.14-39.68ZM264.96 0L251.01 0L259.14-42.24L273.22-42.24L264.96 0ZM301.95-9.86L301.95-9.86L301.95-9.86Q303.17-8.32 303.17-5.82L303.17-5.82L303.17-5.82Q303.17-2.37 300.61-0.54L300.61-0.54L300.61-0.54Q298.05 1.28 294.02 1.28L294.02 1.28L294.02 1.28Q291.71 1.28 288.19 0.77L288.19 0.77L288.19 0.77Q281.28-0.32 279.17-0.32L279.17-0.32L279.17-0.32Q277.06-0.32 276.22-0.22L276.22-0.22L276.22-0.22Q275.39-0.13 274.05 0L274.05 0L281.92-42.24L309.50-42.24L309.50-42.24Q309.50-38.34 307.62-36.29L307.62-36.29L307.62-36.29Q305.73-34.24 302.02-34.24L302.02-34.24L302.02-34.24Q298.30-34.24 294.53-35.97L294.53-35.97L292.54-24.77L303.94-24.77L303.94-24.77Q303.94-21.38 302.27-19.49L302.27-19.49L302.27-19.49Q300.61-17.60 297.82-17.60L297.82-17.60L297.82-17.60Q295.04-17.60 293.31-18.24L293.31-18.24L293.31-18.24Q291.58-18.88 291.39-19.07L291.39-19.07L289.09-6.98L289.09-6.98Q290.62-6.78 293.50-6.78L293.50-6.78L293.50-6.78Q298.43-6.78 301.95-9.86ZM310.66-39.68L310.66-39.68L310.66-39.68Q311.55-41.47 313.50-42.46L313.50-42.46L313.50-42.46Q315.46-43.46 318.14-43.46L318.14-43.46L318.14-43.46Q322.37-43.46 324.90-40.42L324.90-40.42L324.90-40.42Q327.42-37.38 327.42-30.72L327.42-30.72L327.42-7.87L342.08-42.18L349.63-42.18L351.36-9.79L351.17-7.94L366.40-42.18L375.17-42.18L354.69 0L341.06 0L339.78-19.46L331.33 0L315.90 0L313.98-30.72L313.98-30.72Q313.79-34.18 312.86-36.45L312.86-36.45L312.86-36.45Q311.94-38.72 310.66-39.68ZM399.74-9.86L399.74-9.86L399.74-9.86Q400.96-8.32 400.96-5.82L400.96-5.82L400.96-5.82Q400.96-2.37 398.40-0.54L398.40-0.54L398.40-0.54Q395.84 1.28 391.81 1.28L391.81 1.28L391.81 1.28Q389.50 1.28 385.98 0.77L385.98 0.77L385.98 0.77Q379.07-0.32 376.96-0.32L376.96-0.32L376.96-0.32Q374.85-0.32 374.02-0.22L374.02-0.22L374.02-0.22Q373.18-0.13 371.84 0L371.84 0L379.71-42.24L407.30-42.24L407.30-42.24Q407.30-38.34 405.41-36.29L405.41-36.29L405.41-36.29Q403.52-34.24 399.81-34.24L399.81-34.24L399.81-34.24Q396.10-34.24 392.32-35.97L392.32-35.97L390.34-24.77L401.73-24.77L401.73-24.77Q401.73-21.38 400.06-19.49L400.06-19.49L400.06-19.49Q398.40-17.60 395.62-17.60L395.62-17.60L395.62-17.60Q392.83-17.60 391.10-18.24L391.10-18.24L391.10-18.24Q389.38-18.88 389.18-19.07L389.18-19.07L386.88-6.98L386.88-6.98Q388.42-6.78 391.30-6.78L391.30-6.78L391.30-6.78Q396.22-6.78 399.74-9.86ZM419.97 0L406.27 0L414.08-42.05L414.08-42.05Q420.42-42.75 429.66-42.75L429.66-42.75L429.66-42.75Q438.91-42.75 443.20-40.06L443.20-40.06L443.20-40.06Q447.49-37.38 447.49-31.97L447.49-31.97L447.49-31.97Q447.49-26.56 444.70-23.17L444.70-23.17L444.70-23.17Q441.92-19.78 437.12-18.69L437.12-18.69L437.12-18.69Q438.21-13.38 440.70-9.09L440.70-9.09L440.70-9.09Q443.01-5.06 445.70-3.78L445.70-3.78L445.70-3.78Q444.74-1.09 442.78 0.10L442.78 0.10L442.78 0.10Q440.83 1.28 438.05 1.28L438.05 1.28L438.05 1.28Q435.26 1.28 433.09-0.35L433.09-0.35L433.09-0.35Q430.91-1.98 429.18-4.99L429.18-4.99L429.18-4.99Q425.54-11.52 425.15-21.82L425.15-21.82L425.60-21.82L425.60-21.82Q430.34-21.95 432.70-24.42L432.70-24.42L432.70-24.42Q435.07-26.88 435.07-32.06L435.07-32.06L435.07-32.06Q435.07-38.53 429.63-38.78L429.63-38.78L428.22-38.78L428.22-38.78Q427.65-38.78 427.33-38.72L427.33-38.72L419.97 0Z" fill="url(#editing-glowing-gradient)"></path></g></g><style>text {
  font-size: 64px;
  font-family: Arial Black;
  dominant-baseline: central;
  text-anchor: middle;
}</style></svg>
